<svg width="206" height="206" viewBox="0 0 206 206" fill="none" xmlns="http://www.w3.org/2000/svg">
<path fill-rule="evenodd" clip-rule="evenodd" d="M136.928 32.6619C139.303 30.2025 142.144 28.2408 145.286 26.8913C148.428 25.5418 151.806 24.8314 155.225 24.8017C158.645 24.772 162.035 25.4235 165.2 26.7183C168.364 28.013 171.239 29.925 173.657 32.3427C176.075 34.7605 177.987 37.6355 179.282 40.8001C180.576 43.9647 181.228 47.3554 181.198 50.7745C181.169 54.1936 180.458 57.5725 179.109 60.7141C177.759 63.8557 175.797 66.6971 173.338 69.0724L134.713 107.697C129.884 112.525 123.336 115.237 116.508 115.237C109.68 115.237 103.131 112.525 98.3026 107.697C95.8743 105.352 92.6221 104.054 89.2463 104.084C85.8705 104.113 82.6413 105.467 80.2542 107.854C77.867 110.241 76.513 113.471 76.4837 116.846C76.4543 120.222 77.752 123.474 80.0973 125.903C89.755 135.557 102.852 140.981 116.508 140.981C130.164 140.981 143.261 135.557 152.918 125.903L191.543 87.2777C200.924 77.5647 206.115 64.5556 205.998 51.0525C205.881 37.5494 200.464 24.6325 190.916 15.084C181.367 5.53549 168.451 0.119285 154.947 0.00194683C141.444 -0.115392 128.435 5.07552 118.722 14.4567L99.4098 33.7692C98.1801 34.9568 97.1993 36.3775 96.5245 37.9483C95.8498 39.5191 95.4946 41.2086 95.4797 42.9181C95.4649 44.6277 95.7906 46.323 96.438 47.9053C97.0854 49.4876 98.0414 50.9251 99.2502 52.134C100.459 53.3429 101.897 54.2989 103.479 54.9462C105.061 55.5936 106.757 55.9194 108.466 55.9045C110.176 55.8897 111.865 55.5345 113.436 54.8597C115.007 54.185 116.427 53.2041 117.615 51.9744L136.928 32.6619V32.6619ZM72.5526 97.0369C77.3814 92.2095 83.9299 89.4977 90.7578 89.4977C97.5858 89.4977 104.134 92.2095 108.963 97.0369C110.151 98.2666 111.571 99.2475 113.142 99.9222C114.713 100.597 116.402 100.952 118.112 100.967C119.822 100.982 121.517 100.656 123.099 100.009C124.682 99.3614 126.119 98.4054 127.328 97.1965C128.537 95.9876 129.493 94.5501 130.14 92.9678C130.788 91.3855 131.113 89.6902 131.098 87.9806C131.084 86.2711 130.728 84.5816 130.054 83.0108C129.379 81.44 128.398 80.0193 127.168 78.8317C117.511 69.1769 104.414 63.7532 90.7578 63.7532C77.1019 63.7532 64.005 69.1769 54.3473 78.8317L15.7223 117.457C10.8036 122.207 6.88018 127.89 4.18112 134.173C1.48206 140.457 0.061366 147.214 0.00194447 154.052C-0.0574771 160.891 1.24556 167.672 3.83503 174.001C6.42449 180.33 10.2485 186.081 15.084 190.916C19.9195 195.751 25.6695 199.576 31.9987 202.165C38.3279 204.754 45.1094 206.057 51.9475 205.998C58.7856 205.939 65.5435 204.518 71.8267 201.819C78.1099 199.12 83.7926 195.196 88.5433 190.278L107.856 170.965C109.086 169.777 110.066 168.357 110.741 166.786C111.416 165.215 111.771 163.526 111.786 161.816C111.801 160.107 111.475 158.411 110.828 156.829C110.18 155.247 109.224 153.809 108.015 152.6C106.807 151.391 105.369 150.435 103.787 149.788C102.204 149.141 100.509 148.815 98.7995 148.83C97.09 148.845 95.4006 149.2 93.8298 149.875C92.259 150.549 90.8383 151.53 89.6506 152.76L70.3381 172.072C67.9627 174.532 65.1214 176.493 61.9798 177.843C58.8381 179.193 55.4592 179.903 52.0402 179.933C48.6211 179.962 45.2304 179.311 42.0658 178.016C38.9012 176.721 36.0262 174.809 33.6084 172.392C31.1907 169.974 29.2787 167.099 27.9839 163.934C26.6892 160.77 26.0377 157.379 26.0674 153.96C26.0971 150.541 26.8074 147.162 28.157 144.02C29.5065 140.879 31.4682 138.037 33.9276 135.662L72.5526 97.0369Z" fill="#7DD7F5"/>
</svg>
